<?xml version="1.0" standalone="no"?>
<!DOCTYPE svg PUBLIC "-//W3C//DTD SVG 1.1//EN" "http://www.w3.org/Graphics/SVG/1.1/DTD/svg11.dtd" >
<svg xmlns="http://www.w3.org/2000/svg" xmlns:xlink="http://www.w3.org/1999/xlink" version="1.1">
<metadata>
Created by FontForge 20161013 at Wed Jan 14 10:07:45 2015
 By ,,,
(c) 2014 Apple Inc. All rights reserved.
</metadata>
<defs>
<font id="SanFranciscoText-Regular" horiz-adv-x="1243" >
  <font-face 
    font-family="San Francisco Text Regular"
    font-weight="400"
    font-stretch="normal"
    units-per-em="2048"
    panose-1="0 0 0 0 0 0 0 0 0 0"
    ascent="1638"
    descent="-410"
    bbox="54 -349 1482 1989"
    underline-thickness="102"
    underline-position="-365"
    unicode-range="U+0020-20AB"
  />
<missing-glyph horiz-adv-x="1293" 
d="M120 0v1365h1053v-1365h-1053zM501 313q0 -47 33.5 -77t86.5 -30q55 0 88.5 29.5t33.5 77.5q0 49 -33.5 78.5t-88.5 29.5q-54 0 -87 -30t-33 -78zM339 888h169q1 59 34.5 94.5t90.5 35.5q54 0 87 -30t33 -80q0 -38 -20.5 -65.5t-82.5 -72.5q-69 -48 -96 -100t-22 -121
l1 -18h166v15q0 48 19 76t88 77q73 52 103 102t30 116q0 113 -81 181.5t-215 68.5q-143 0 -225.5 -76t-78.5 -203z" />
    <glyph glyph-name=".notdef" horiz-adv-x="1293" 
d="M120 0v1365h1053v-1365h-1053zM501 313q0 -47 33.5 -77t86.5 -30q55 0 88.5 29.5t33.5 77.5q0 49 -33.5 78.5t-88.5 29.5q-54 0 -87 -30t-33 -78zM339 888h169q1 59 34.5 94.5t90.5 35.5q54 0 87 -30t33 -80q0 -38 -20.5 -65.5t-82.5 -72.5q-69 -48 -96 -100t-22 -121
l1 -18h166v15q0 48 19 76t88 77q73 52 103 102t30 116q0 113 -81 181.5t-215 68.5q-143 0 -225.5 -76t-78.5 -203z" />
    <glyph glyph-name=".null" horiz-adv-x="0" 
 />
    <glyph glyph-name="nonmarkingreturn" horiz-adv-x="682" 
 />
    <glyph glyph-name="CR" horiz-adv-x="0" 
 />
    <glyph glyph-name="space" unicode=" " horiz-adv-x="465" 
 />
    <glyph glyph-name="Abreve" unicode="&#x102;" 
d="M217 0h-163l490 1365h155l490 -1365h-171l-142 420h-516zM621 1168h-6l-210 -617h426zM302 1746h117q0 -74 52 -119t151 -45t151 45t52 119h117q0 -110 -82.5 -184.5t-237.5 -74.5t-237.5 74.5t-82.5 184.5z" />
    <glyph glyph-name="abreve" unicode="&#x103;" horiz-adv-x="1108" 
d="M465 -17q-153 0 -247.5 89t-94.5 233q0 140 95.5 223.5t271.5 83.5h280v107q0 104 -61 155t-172 51q-99 0 -150.5 -32.5t-70.5 -93.5h-153q12 132 112.5 199.5t268.5 67.5q82 0 149.5 -19t121.5 -58.5t84 -108t30 -160.5v-720h-152v141h-7q-99 -158 -305 -158zM505 119
q113 0 189 69t76 171v122h-277q-106 0 -157 -47t-51 -126q0 -91 63.5 -140t156.5 -49zM307 1465h114q0 -69 43 -116.5t127 -47.5t127 47.5t43 116.5h114q0 -46 -16.5 -91t-48.5 -85.5t-89 -65.5t-130 -25t-130 25t-89.5 65.5t-48.5 85.5t-16 91z" />
    <glyph glyph-name="Adotbelow" unicode="&#x1ea0;" 
d="M217 0h-163l490 1365h155l490 -1365h-171l-142 420h-516zM621 1168h-6l-210 -617h426zM518 -250q0 45 29 73t75 28t75 -28t29 -73t-29 -72t-75 -27t-75 27t-29 72z" />
    <glyph glyph-name="adotbelow" unicode="&#x1ea1;" horiz-adv-x="1108" 
d="M465 -17q-153 0 -247.5 89t-94.5 233q0 140 95.5 223.5t271.5 83.5h280v107q0 104 -61 155t-172 51q-99 0 -150.5 -32.5t-70.5 -93.5h-153q12 132 112.5 199.5t268.5 67.5q82 0 149.5 -19t121.5 -58.5t84 -108t30 -160.5v-720h-152v141h-7q-99 -158 -305 -158zM505 119
q113 0 189 69t76 171v122h-277q-106 0 -157 -47t-51 -126q0 -91 63.5 -140t156.5 -49zM450 -250q0 45 29 73t75 28t75 -28t29 -73t-29 -72t-75 -27t-75 27t-29 72z" />
    <glyph glyph-name="Ahookabove" unicode="&#x1ea2;" 
d="M217 0h-163l490 1365h155l490 -1365h-171l-142 420h-516zM621 1168h-6l-210 -617h426zM500 1678v83q45 14 93 14q80 0 133 -36t53 -100q0 -101 -138 -147l-57 74q33 7 60.5 25t27.5 42q0 54 -84 54q-43 0 -88 -9z" />
    <glyph glyph-name="ahookabove" unicode="&#x1ea3;" horiz-adv-x="1108" 
d="M465 -17q-153 0 -247.5 89t-94.5 233q0 140 95.5 223.5t271.5 83.5h280v107q0 104 -61 155t-172 51q-99 0 -150.5 -32.5t-70.5 -93.5h-153q12 132 112.5 199.5t268.5 67.5q82 0 149.5 -19t121.5 -58.5t84 -108t30 -160.5v-720h-152v141h-7q-99 -158 -305 -158zM505 119
q113 0 189 69t76 171v122h-277q-106 0 -157 -47t-51 -126q0 -91 63.5 -140t156.5 -49zM415 1444v98q45 17 106 17q96 0 153 -47t57 -131q0 -68 -40 -112t-114 -85l-61 82q54 30 76.5 56t22.5 56q0 36 -29.5 58.5t-73.5 22.5q-52 0 -97 -15z" />
    <glyph glyph-name="Acircumflexacute" unicode="&#x1ea4;" 
d="M217 0h-163l490 1365h155l490 -1365h-171l-142 420h-516zM621 1168h-6l-210 -617h426zM274 1511l278 214h153l261 -214h-173l-166 133h-5l-169 -133h-179zM820 1727l200 235h180l-308 -286z" />
    <glyph glyph-name="acircumflexacute" unicode="&#x1ea5;" horiz-adv-x="1108" 
d="M465 -17q-153 0 -247.5 89t-94.5 233q0 140 95.5 223.5t271.5 83.5h280v107q0 104 -61 155t-172 51q-99 0 -150.5 -32.5t-70.5 -93.5h-153q12 132 112.5 199.5t268.5 67.5q82 0 149.5 -19t121.5 -58.5t84 -108t30 -160.5v-720h-152v141h-7q-99 -158 -305 -158zM505 119
q113 0 189 69t76 171v122h-277q-106 0 -157 -47t-51 -126q0 -91 63.5 -140t156.5 -49zM206 1195l278 214h153l261 -214h-173l-166 133h-5l-169 -133h-179zM752 1411l200 235h180l-308 -286z" />
    <glyph glyph-name="Acircumflexgrave" unicode="&#x1ea6;" 
d="M217 0h-163l490 1365h155l490 -1365h-171l-142 420h-516zM621 1168h-6l-210 -617h426zM1049 1717h-124l-266 245h180zM274 1511l278 214h153l261 -214h-173l-166 133h-5l-169 -133h-179z" />
    <glyph glyph-name="acircumflexgrave" unicode="&#x1ea7;" horiz-adv-x="1108" 
d="M465 -17q-153 0 -247.5 89t-94.5 233q0 140 95.5 223.5t271.5 83.5h280v107q0 104 -61 155t-172 51q-99 0 -150.5 -32.5t-70.5 -93.5h-153q12 132 112.5 199.5t268.5 67.5q82 0 149.5 -19t121.5 -58.5t84 -108t30 -160.5v-720h-152v141h-7q-99 -158 -305 -158zM505 119
q113 0 189 69t76 171v122h-277q-106 0 -157 -47t-51 -126q0 -91 63.5 -140t156.5 -49zM981 1401h-124l-266 245h180zM206 1195l278 214h153l261 -214h-173l-166 133h-5l-169 -133h-179z" />
    <glyph glyph-name="Acircumflexhookabove" unicode="&#x1ea8;" 
d="M217 0h-163l490 1365h155l490 -1365h-171l-142 420h-516zM621 1168h-6l-210 -617h426zM274 1511l278 214h153l261 -214h-173l-166 133h-5l-169 -133h-179zM793 1863v86q36 8 86 8q79 0 124.5 -36t45.5 -99q0 -91 -104 -147l-58 62q51 33 51 71q0 29 -24.5 44.5
t-59.5 15.5q-37 0 -61 -5z" />
    <glyph glyph-name="acircumflexhookabove" unicode="&#x1ea9;" horiz-adv-x="1108" 
d="M465 -17q-153 0 -247.5 89t-94.5 233q0 140 95.5 223.5t271.5 83.5h280v107q0 104 -61 155t-172 51q-99 0 -150.5 -32.5t-70.5 -93.5h-153q12 132 112.5 199.5t268.5 67.5q82 0 149.5 -19t121.5 -58.5t84 -108t30 -160.5v-720h-152v141h-7q-99 -158 -305 -158zM505 119
q113 0 189 69t76 171v122h-277q-106 0 -157 -47t-51 -126q0 -91 63.5 -140t156.5 -49zM206 1195l278 214h153l261 -214h-173l-166 133h-5l-169 -133h-179zM725 1547v86q36 8 86 8q79 0 124.5 -36t45.5 -99q0 -91 -104 -147l-58 62q51 33 51 71q0 29 -24.5 44.5t-59.5 15.5
q-37 0 -61 -5z" />
    <glyph glyph-name="Acircumflextilde" unicode="&#x1eaa;" 
d="M217 0h-163l490 1365h155l490 -1365h-171l-142 420h-516zM621 1168h-6l-210 -617h426zM613 1844q-52 50 -90 50q-66 0 -71 -101h-116q0 79 47.5 137.5t137.5 58.5q45 0 80.5 -17t75.5 -53q2 -2 13 -12t14.5 -13t13 -9.5t15 -9t14.5 -5t18 -2.5q35 0 53.5 33.5t22.5 73.5
h115q0 -80 -50 -138t-132 -58q-57 0 -91.5 16t-69.5 49zM274 1511l278 214h153l261 -214h-173l-166 133h-5l-169 -133h-179z" />
    <glyph glyph-name="acircumflextilde" unicode="&#x1eab;" horiz-adv-x="1108" 
d="M465 -17q-153 0 -247.5 89t-94.5 233q0 140 95.5 223.5t271.5 83.5h280v107q0 104 -61 155t-172 51q-99 0 -150.5 -32.5t-70.5 -93.5h-153q12 132 112.5 199.5t268.5 67.5q82 0 149.5 -19t121.5 -58.5t84 -108t30 -160.5v-720h-152v141h-7q-99 -158 -305 -158zM505 119
q113 0 189 69t76 171v122h-277q-106 0 -157 -47t-51 -126q0 -91 63.5 -140t156.5 -49zM545 1528q-52 50 -90 50q-66 0 -71 -101h-116q0 79 47.5 137.5t137.5 58.5q45 0 80.5 -17t75.5 -53q2 -2 13 -12t14.5 -13t13 -9.5t15 -9t14.5 -5t18 -2.5q35 0 53.5 33.5t22.5 73.5h115
q0 -80 -50 -138t-132 -58q-57 0 -91.5 16t-69.5 49zM206 1195l278 214h153l261 -214h-173l-166 133h-5l-169 -133h-179z" />
    <glyph glyph-name="Acircumflexdotbelow" unicode="&#x1eac;" 
d="M217 0h-163l490 1365h155l490 -1365h-171l-142 420h-516zM621 1168h-6l-210 -617h426zM303 1503l282 244h99l271 -244h-163l-158 144h-5l-167 -144h-159zM518 -250q0 45 29 73t75 28t75 -28t29 -73t-29 -72t-75 -27t-75 27t-29 72z" />
    <glyph glyph-name="acircumflexdotbelow" unicode="&#x1ead;" horiz-adv-x="1108" 
d="M465 -17q-153 0 -247.5 89t-94.5 233q0 140 95.5 223.5t271.5 83.5h280v107q0 104 -61 155t-172 51q-99 0 -150.5 -32.5t-70.5 -93.5h-153q12 132 112.5 199.5t268.5 67.5q82 0 149.5 -19t121.5 -58.5t84 -108t30 -160.5v-720h-152v141h-7q-99 -158 -305 -158zM505 119
q113 0 189 69t76 171v122h-277q-106 0 -157 -47t-51 -126q0 -91 63.5 -140t156.5 -49zM253 1220l249 382h101l239 -382h-137l-152 263h-3l-159 -263h-138zM450 -250q0 45 29 73t75 28t75 -28t29 -73t-29 -72t-75 -27t-75 27t-29 72z" />
    <glyph glyph-name="Abreveacute" unicode="&#x1eae;" 
d="M217 0h-163l490 1365h155l490 -1365h-171l-142 420h-516zM621 1168h-6l-210 -617h426zM891 1699q0 -39 -15.5 -75.5t-46 -69t-84.5 -52t-123 -19.5q-134 0 -205.5 65.5t-71.5 150.5h111q0 -51 44.5 -86t121.5 -35q78 0 123 34.5t45 86.5h101zM527 1710l265 250h152
l-276 -250h-141z" />
    <glyph glyph-name="abreveacute" unicode="&#x1eaf;" horiz-adv-x="1108" 
d="M465 -17q-153 0 -247.5 89t-94.5 233q0 140 95.5 223.5t271.5 83.5h280v107q0 104 -61 155t-172 51q-99 0 -150.5 -32.5t-70.5 -93.5h-153q12 132 112.5 199.5t268.5 67.5q82 0 149.5 -19t121.5 -58.5t84 -108t30 -160.5v-720h-152v141h-7q-99 -158 -305 -158zM505 119
q113 0 189 69t76 171v122h-277q-106 0 -157 -47t-51 -126q0 -91 63.5 -140t156.5 -49zM823 1383q0 -39 -15.5 -75.5t-46 -69t-84.5 -52t-123 -19.5q-134 0 -205.5 65.5t-71.5 150.5h111q0 -51 44.5 -86t121.5 -35q78 0 123 34.5t45 86.5h101zM459 1394l265 250h152
l-276 -250h-141z" />
    <glyph glyph-name="Abrevegrave" unicode="&#x1eb0;" 
d="M217 0h-163l490 1365h155l490 -1365h-171l-142 420h-516zM621 1168h-6l-210 -617h426zM891 1699q0 -39 -15.5 -75.5t-46 -69t-84.5 -52t-123 -19.5q-134 0 -205.5 65.5t-71.5 150.5h111q0 -51 44.5 -86t121.5 -35q78 0 123 34.5t45 86.5h101zM735 1710h-141l-276 250h152
z" />
    <glyph glyph-name="abrevegrave" unicode="&#x1eb1;" horiz-adv-x="1108" 
d="M465 -17q-153 0 -247.5 89t-94.5 233q0 140 95.5 223.5t271.5 83.5h280v107q0 104 -61 155t-172 51q-99 0 -150.5 -32.5t-70.5 -93.5h-153q12 132 112.5 199.5t268.5 67.5q82 0 149.5 -19t121.5 -58.5t84 -108t30 -160.5v-720h-152v141h-7q-99 -158 -305 -158zM505 119
q113 0 189 69t76 171v122h-277q-106 0 -157 -47t-51 -126q0 -91 63.5 -140t156.5 -49zM823 1383q0 -39 -15.5 -75.5t-46 -69t-84.5 -52t-123 -19.5q-134 0 -205.5 65.5t-71.5 150.5h111q0 -51 44.5 -86t121.5 -35q78 0 123 34.5t45 86.5h101zM667 1394h-141l-276 250h152z
" />
    <glyph glyph-name="Abrevehookabove" unicode="&#x1eb2;" 
d="M217 0h-163l490 1365h155l490 -1365h-171l-142 420h-516zM621 1168h-6l-210 -617h426zM891 1699q0 -39 -15.5 -75.5t-46 -69t-84.5 -52t-123 -19.5q-134 0 -205.5 65.5t-71.5 150.5h111q0 -51 44.5 -86t121.5 -35q78 0 123 34.5t45 86.5h101zM463 1865v88q45 14 98 14
q84 0 139.5 -37.5t55.5 -105.5q0 -35 -15.5 -63.5t-41.5 -46t-46 -27.5t-42 -17l-60 77q35 8 64 27t29 44q0 57 -89 57q-50 0 -92 -10z" />
    <glyph glyph-name="abrevehookabove" unicode="&#x1eb3;" horiz-adv-x="1108" 
d="M465 -17q-153 0 -247.5 89t-94.5 233q0 140 95.5 223.5t271.5 83.5h280v107q0 104 -61 155t-172 51q-99 0 -150.5 -32.5t-70.5 -93.5h-153q12 132 112.5 199.5t268.5 67.5q82 0 149.5 -19t121.5 -58.5t84 -108t30 -160.5v-720h-152v141h-7q-99 -158 -305 -158zM505 119
q113 0 189 69t76 171v122h-277q-106 0 -157 -47t-51 -126q0 -91 63.5 -140t156.5 -49zM823 1383q0 -39 -15.5 -75.5t-46 -69t-84.5 -52t-123 -19.5q-134 0 -205.5 65.5t-71.5 150.5h111q0 -51 44.5 -86t121.5 -35q78 0 123 34.5t45 86.5h101zM395 1549v88q45 14 98 14
q84 0 139.5 -37.5t55.5 -105.5q0 -35 -15.5 -63.5t-41.5 -46t-46 -27.5t-42 -17l-60 77q35 8 64 27t29 44q0 57 -89 57q-50 0 -92 -10z" />
    <glyph glyph-name="Abrevetilde" unicode="&#x1eb4;" 
d="M217 0h-163l490 1365h155l490 -1365h-171l-142 420h-516zM621 1168h-6l-210 -617h426zM891 1699q0 -39 -15.5 -75.5t-46 -69t-84.5 -52t-123 -19.5q-134 0 -205.5 65.5t-71.5 150.5h111q0 -51 44.5 -86t121.5 -35q78 0 123 34.5t45 86.5h101zM590 1839q-14 15 -22.5 23
t-24 16t-32.5 8q-57 0 -64 -92h-111q0 76 48 131t124 55q41 0 71 -14.5t64 -48.5q1 -1 8.5 -9t9.5 -9.5t8.5 -7.5t9 -7.5t9 -5t11 -5t10.5 -2.5t13 -1q31 0 48 30.5t20 67.5h108q0 -78 -46.5 -133t-121.5 -55q-50 0 -80.5 14t-59.5 45z" />
    <glyph glyph-name="abrevetilde" unicode="&#x1eb5;" horiz-adv-x="1108" 
d="M465 -17q-153 0 -247.5 89t-94.5 233q0 140 95.5 223.5t271.5 83.5h280v107q0 104 -61 155t-172 51q-99 0 -150.5 -32.5t-70.5 -93.5h-153q12 132 112.5 199.5t268.5 67.5q82 0 149.5 -19t121.5 -58.5t84 -108t30 -160.5v-720h-152v141h-7q-99 -158 -305 -158zM505 119
q113 0 189 69t76 171v122h-277q-106 0 -157 -47t-51 -126q0 -91 63.5 -140t156.5 -49zM823 1383q0 -39 -15.5 -75.5t-46 -69t-84.5 -52t-123 -19.5q-134 0 -205.5 65.5t-71.5 150.5h111q0 -51 44.5 -86t121.5 -35q78 0 123 34.5t45 86.5h101zM522 1523q-14 15 -22.5 23
t-24 16t-32.5 8q-57 0 -64 -92h-111q0 76 48 131t124 55q41 0 71 -14.5t64 -48.5q1 -1 8.5 -9t9.5 -9.5t8.5 -7.5t9 -7.5t9 -5t11 -5t10.5 -2.5t13 -1q31 0 48 30.5t20 67.5h108q0 -78 -46.5 -133t-121.5 -55q-50 0 -80.5 14t-59.5 45z" />
    <glyph glyph-name="Abrevedotbelow" unicode="&#x1eb6;" 
d="M217 0h-163l490 1365h155l490 -1365h-171l-142 420h-516zM621 1168h-6l-210 -617h426zM302 1746h117q0 -74 52 -119t151 -45t151 45t52 119h117q0 -110 -82.5 -184.5t-237.5 -74.5t-237.5 74.5t-82.5 184.5zM518 -250q0 45 29 73t75 28t75 -28t29 -73t-29 -72t-75 -27
t-75 27t-29 72z" />
    <glyph glyph-name="abrevedotbelow" unicode="&#x1eb7;" horiz-adv-x="1108" 
d="M465 -17q-153 0 -247.5 89t-94.5 233q0 140 95.5 223.5t271.5 83.5h280v107q0 104 -61 155t-172 51q-99 0 -150.5 -32.5t-70.5 -93.5h-153q12 132 112.5 199.5t268.5 67.5q82 0 149.5 -19t121.5 -58.5t84 -108t30 -160.5v-720h-152v141h-7q-99 -158 -305 -158zM505 119
q113 0 189 69t76 171v122h-277q-106 0 -157 -47t-51 -126q0 -91 63.5 -140t156.5 -49zM307 1465h114q0 -69 43 -116.5t127 -47.5t127 47.5t43 116.5h114q0 -46 -16.5 -91t-48.5 -85.5t-89 -65.5t-130 -25t-130 25t-89.5 65.5t-48.5 85.5t-16 91zM450 -250q0 45 29 73t75 28
t75 -28t29 -73t-29 -72t-75 -27t-75 27t-29 72z" />
    <glyph glyph-name="Edotbelow" unicode="&#x1eb8;" horiz-adv-x="1147" 
d="M1003 145v-145h-809v1365h809v-145h-650v-450h614v-144h-614v-481h650zM492 -250q0 45 29 73t75 28t75 -28t29 -73t-29 -72t-75 -27t-75 27t-29 72z" />
    <glyph glyph-name="edotbelow" unicode="&#x1eb9;" horiz-adv-x="1112" 
d="M572 -17q-207 0 -323.5 123.5t-116.5 332.5v170q0 206 119 331.5t308 125.5t308 -125.5t119 -331.5v-128h-696v-53q0 -133 73.5 -219t207.5 -86q91 0 154 36.5t79 88.5h167q-7 -43 -34.5 -87t-74.5 -85t-123 -67t-167 -26zM290 603h538v19q0 138 -74 222t-195 84
t-195 -84t-74 -222v-19zM452 -250q0 45 29 73t75 28t75 -28t29 -73t-29 -72t-75 -27t-75 27t-29 72z" />
    <glyph glyph-name="Ehookabove" unicode="&#x1eba;" horiz-adv-x="1147" 
d="M1003 145v-145h-809v1365h809v-145h-650v-450h614v-144h-614v-481h650zM474 1678v83q45 14 93 14q80 0 133 -36t53 -100q0 -101 -138 -147l-57 74q33 7 60.5 25t27.5 42q0 54 -84 54q-43 0 -88 -9z" />
    <glyph glyph-name="ehookabove" unicode="&#x1ebb;" horiz-adv-x="1112" 
d="M572 -17q-207 0 -323.5 123.5t-116.5 332.5v170q0 206 119 331.5t308 125.5t308 -125.5t119 -331.5v-128h-696v-53q0 -133 73.5 -219t207.5 -86q91 0 154 36.5t79 88.5h167q-7 -43 -34.5 -87t-74.5 -85t-123 -67t-167 -26zM290 603h538v19q0 138 -74 222t-195 84
t-195 -84t-74 -222v-19zM417 1444v98q45 17 106 17q96 0 153 -47t57 -131q0 -68 -40 -112t-114 -85l-61 82q54 30 76.5 56t22.5 56q0 36 -29.5 58.5t-73.5 22.5q-52 0 -97 -15z" />
    <glyph glyph-name="Etilde" unicode="&#x1ebc;" horiz-adv-x="1147" 
d="M1003 145v-145h-809v1365h809v-145h-650v-450h614v-144h-614v-481h650zM564 1530l-8 8l-8.5 8.5t-8.5 8t-9 8t-9 6.5t-10.5 6t-10 4.5t-11 3.5t-11.5 1q-21 0 -35 -9.5t-20.5 -27.5t-9.5 -32.5t-4 -35.5h-112q0 87 45 148t134 61q76 0 153 -74l15.5 -15.5l16 -16
t14.5 -12t18 -9t20 -2.5q23 0 40 20t24.5 43.5t9.5 48.5h111q0 -80 -48.5 -145t-128.5 -65q-54 0 -88.5 17.5t-68.5 51.5z" />
    <glyph glyph-name="etilde" unicode="&#x1ebd;" horiz-adv-x="1112" 
d="M572 -17q-207 0 -323.5 123.5t-116.5 332.5v170q0 206 119 331.5t308 125.5t308 -125.5t119 -331.5v-128h-696v-53q0 -133 73.5 -219t207.5 -86q91 0 154 36.5t79 88.5h167q-7 -43 -34.5 -87t-74.5 -85t-123 -67t-167 -26zM290 603h538v19q0 138 -74 222t-195 84
t-195 -84t-74 -222v-19zM527 1234q-13 21 -21.5 32.5t-26.5 23t-39 11.5q-63 0 -70 -132h-113q0 105 49 176t130 71q51 0 86.5 -18.5t66.5 -65.5q4 -6 13 -21t14 -21.5t14 -16t20 -13.5t24 -4q32 0 51 44.5t23 97.5h112q0 -95 -52 -171.5t-123 -76.5q-58 0 -94.5 20
t-63.5 64z" />
    <glyph glyph-name="Ecircumflexacute" unicode="&#x1ebe;" horiz-adv-x="1147" 
d="M1003 145v-145h-809v1365h809v-145h-650v-450h614v-144h-614v-481h650zM248 1511l278 214h153l261 -214h-173l-166 133h-5l-169 -133h-179zM794 1727l200 235h180l-308 -286z" />
    <glyph glyph-name="ecircumflexacute" unicode="&#x1ebf;" horiz-adv-x="1112" 
d="M572 -17q-207 0 -323.5 123.5t-116.5 332.5v170q0 206 119 331.5t308 125.5t308 -125.5t119 -331.5v-128h-696v-53q0 -133 73.5 -219t207.5 -86q91 0 154 36.5t79 88.5h167q-7 -43 -34.5 -87t-74.5 -85t-123 -67t-167 -26zM290 603h538v19q0 138 -74 222t-195 84
t-195 -84t-74 -222v-19zM208 1195l278 214h153l261 -214h-173l-166 133h-5l-169 -133h-179zM754 1411l200 235h180l-308 -286z" />
    <glyph glyph-name="Ecircumflexgrave" unicode="&#x1ec0;" horiz-adv-x="1147" 
d="M1003 145v-145h-809v1365h809v-145h-650v-450h614v-144h-614v-481h650zM1023 1717h-124l-266 245h180zM248 1511l278 214h153l261 -214h-173l-166 133h-5l-169 -133h-179z" />
    <glyph glyph-name="ecircumflexgrave" unicode="&#x1ec1;" horiz-adv-x="1112" 
d="M572 -17q-207 0 -323.5 123.5t-116.5 332.5v170q0 206 119 331.5t308 125.5t308 -125.5t119 -331.5v-128h-696v-53q0 -133 73.5 -219t207.5 -86q91 0 154 36.5t79 88.5h167q-7 -43 -34.5 -87t-74.5 -85t-123 -67t-167 -26zM290 603h538v19q0 138 -74 222t-195 84
t-195 -84t-74 -222v-19zM983 1401h-124l-266 245h180zM208 1195l278 214h153l261 -214h-173l-166 133h-5l-169 -133h-179z" />
    <glyph glyph-name="Ecircumflexhookabove" unicode="&#x1ec2;" horiz-adv-x="1147" 
d="M1003 145v-145h-809v1365h809v-145h-650v-450h614v-144h-614v-481h650zM248 1511l278 214h153l261 -214h-173l-166 133h-5l-169 -133h-179zM767 1863v86q36 8 86 8q79 0 124.5 -36t45.5 -99q0 -91 -104 -147l-58 62q51 33 51 71q0 29 -24.5 44.5t-59.5 15.5q-37 0 -61 -5
z" />
    <glyph glyph-name="ecircumflexhookabove" unicode="&#x1ec3;" horiz-adv-x="1112" 
d="M572 -17q-207 0 -323.5 123.5t-116.5 332.5v170q0 206 119 331.5t308 125.5t308 -125.5t119 -331.5v-128h-696v-53q0 -133 73.5 -219t207.5 -86q91 0 154 36.5t79 88.5h167q-7 -43 -34.5 -87t-74.5 -85t-123 -67t-167 -26zM290 603h538v19q0 138 -74 222t-195 84
t-195 -84t-74 -222v-19zM208 1195l278 214h153l261 -214h-173l-166 133h-5l-169 -133h-179zM727 1547v86q36 8 86 8q79 0 124.5 -36t45.5 -99q0 -91 -104 -147l-58 62q51 33 51 71q0 29 -24.5 44.5t-59.5 15.5q-37 0 -61 -5z" />
    <glyph glyph-name="Ecircumflextilde" unicode="&#x1ec4;" horiz-adv-x="1147" 
d="M1003 145v-145h-809v1365h809v-145h-650v-450h614v-144h-614v-481h650zM587 1844q-52 50 -90 50q-66 0 -71 -101h-116q0 79 47.5 137.5t137.5 58.5q45 0 80.5 -17t75.5 -53q2 -2 13 -12t14.5 -13t13 -9.5t15 -9t14.5 -5t18 -2.5q35 0 53.5 33.5t22.5 73.5h115
q0 -80 -50 -138t-132 -58q-57 0 -91.5 16t-69.5 49zM248 1511l278 214h153l261 -214h-173l-166 133h-5l-169 -133h-179z" />
    <glyph glyph-name="ecircumflextilde" unicode="&#x1ec5;" horiz-adv-x="1112" 
d="M572 -17q-207 0 -323.5 123.5t-116.5 332.5v170q0 206 119 331.5t308 125.5t308 -125.5t119 -331.5v-128h-696v-53q0 -133 73.5 -219t207.5 -86q91 0 154 36.5t79 88.5h167q-7 -43 -34.5 -87t-74.5 -85t-123 -67t-167 -26zM290 603h538v19q0 138 -74 222t-195 84
t-195 -84t-74 -222v-19zM547 1528q-52 50 -90 50q-66 0 -71 -101h-116q0 79 47.5 137.5t137.5 58.5q45 0 80.5 -17t75.5 -53q2 -2 13 -12t14.5 -13t13 -9.5t15 -9t14.5 -5t18 -2.5q35 0 53.5 33.5t22.5 73.5h115q0 -80 -50 -138t-132 -58q-57 0 -91.5 16t-69.5 49zM208 1195
l278 214h153l261 -214h-173l-166 133h-5l-169 -133h-179z" />
    <glyph glyph-name="Ecircumflexdotbelow" unicode="&#x1ec6;" horiz-adv-x="1147" 
d="M1003 145v-145h-809v1365h809v-145h-650v-450h614v-144h-614v-481h650zM277 1503l282 244h99l271 -244h-163l-158 144h-5l-167 -144h-159zM492 -250q0 45 29 73t75 28t75 -28t29 -73t-29 -72t-75 -27t-75 27t-29 72z" />
    <glyph glyph-name="ecircumflexdotbelow" unicode="&#x1ec7;" horiz-adv-x="1112" 
d="M572 -17q-207 0 -323.5 123.5t-116.5 332.5v170q0 206 119 331.5t308 125.5t308 -125.5t119 -331.5v-128h-696v-53q0 -133 73.5 -219t207.5 -86q91 0 154 36.5t79 88.5h167q-7 -43 -34.5 -87t-74.5 -85t-123 -67t-167 -26zM290 603h538v19q0 138 -74 222t-195 84
t-195 -84t-74 -222v-19zM255 1220l249 382h101l239 -382h-137l-152 263h-3l-159 -263h-138zM452 -250q0 45 29 73t75 28t75 -28t29 -73t-29 -72t-75 -27t-75 27t-29 72z" />
    <glyph glyph-name="Ihookabove" unicode="&#x1ec8;" horiz-adv-x="547" 
d="M353 0h-159v1365h159v-1365zM152 1678v83q45 14 93 14q80 0 133 -36t53 -100q0 -101 -138 -147l-57 74q33 7 60.5 25t27.5 42q0 54 -84 54q-43 0 -88 -9z" />
    <glyph glyph-name="ihookabove" unicode="&#x1ec9;" horiz-adv-x="578" 
d="M210 0v1049h157v-1049h-157zM150 1444v98q45 17 106 17q96 0 153 -47t57 -131q0 -68 -40 -112t-114 -85l-61 82q54 30 76.5 56t22.5 56q0 36 -29.5 58.5t-73.5 22.5q-52 0 -97 -15z" />
    <glyph glyph-name="Idotbelow" unicode="&#x1eca;" horiz-adv-x="547" 
d="M353 0h-159v1365h159v-1365zM170 -250q0 45 29 73t75 28t75 -28t29 -73t-29 -72t-75 -27t-75 27t-29 72z" />
    <glyph glyph-name="idotbelow" unicode="&#x1ecb;" horiz-adv-x="579" 
d="M211 0v1049h157v-1049h-157zM171 1376q0 51 34 85t83 34q52 0 86 -33.5t34 -85.5q0 -50 -34 -83.5t-86 -33.5q-49 0 -83 33.5t-34 83.5zM186 -250q0 45 29 73t75 28t75 -28t29 -73t-29 -72t-75 -27t-75 27t-29 72z" />
    <glyph glyph-name="Odotbelow" unicode="&#x1ecc;" horiz-adv-x="1360" 
d="M299 778v-205q0 -225 105 -340.5t275 -115.5q171 0 276.5 115.5t105.5 340.5v205q0 227 -106.5 349t-275.5 122q-168 0 -274 -122t-106 -349zM140 573v205q0 288 147 452t394 164t393 -164t146 -452v-205q0 -286 -147 -444t-396 -158q-248 0 -392.5 158t-144.5 444z
M576 -250q0 45 29 73t75 28t75 -28t29 -73t-29 -72t-75 -27t-75 27t-29 72z" />
    <glyph glyph-name="odotbelow" unicode="&#x1ecd;" horiz-adv-x="1155" 
d="M578 1066q195 0 320 -122.5t125 -335.5v-166q0 -214 -125 -336.5t-320 -122.5q-199 0 -322.5 121.5t-123.5 337.5v166q0 207 126 332.5t320 125.5zM578 928q-131 0 -210.5 -93t-79.5 -244v-132q0 -155 77 -245.5t213 -90.5q135 0 211 90t76 246v132q0 152 -78 244.5
t-209 92.5zM474 -250q0 45 29 73t75 28t75 -28t29 -73t-29 -72t-75 -27t-75 27t-29 72z" />
    <glyph glyph-name="Ohookabove" unicode="&#x1ece;" horiz-adv-x="1360" 
d="M299 778v-205q0 -225 105 -340.5t275 -115.5q171 0 276.5 115.5t105.5 340.5v205q0 227 -106.5 349t-275.5 122q-168 0 -274 -122t-106 -349zM140 573v205q0 288 147 452t394 164t393 -164t146 -452v-205q0 -286 -147 -444t-396 -158q-248 0 -392.5 158t-144.5 444z
M558 1678v83q45 14 93 14q80 0 133 -36t53 -100q0 -101 -138 -147l-57 74q33 7 60.5 25t27.5 42q0 54 -84 54q-43 0 -88 -9z" />
    <glyph glyph-name="ohookabove" unicode="&#x1ecf;" horiz-adv-x="1155" 
d="M578 1066q195 0 320 -122.5t125 -335.5v-166q0 -214 -125 -336.5t-320 -122.5q-199 0 -322.5 121.5t-123.5 337.5v166q0 207 126 332.5t320 125.5zM578 928q-131 0 -210.5 -93t-79.5 -244v-132q0 -155 77 -245.5t213 -90.5q135 0 211 90t76 246v132q0 152 -78 244.5
t-209 92.5zM439 1444v98q45 17 106 17q96 0 153 -47t57 -131q0 -68 -40 -112t-114 -85l-61 82q54 30 76.5 56t22.5 56q0 36 -29.5 58.5t-73.5 22.5q-52 0 -97 -15z" />
    <glyph glyph-name="Ocircumflexacute" unicode="&#x1ed0;" horiz-adv-x="1360" 
d="M299 778v-205q0 -225 105 -340.5t275 -115.5q171 0 276.5 115.5t105.5 340.5v205q0 227 -106.5 349t-275.5 122q-168 0 -274 -122t-106 -349zM140 573v205q0 288 147 452t394 164t393 -164t146 -452v-205q0 -286 -147 -444t-396 -158q-248 0 -392.5 158t-144.5 444z
M332 1511l278 214h153l261 -214h-173l-166 133h-5l-169 -133h-179zM878 1727l200 235h180l-308 -286z" />
    <glyph glyph-name="ocircumflexacute" unicode="&#x1ed1;" horiz-adv-x="1155" 
d="M578 1066q195 0 320 -122.5t125 -335.5v-166q0 -214 -125 -336.5t-320 -122.5q-199 0 -322.5 121.5t-123.5 337.5v166q0 207 126 332.5t320 125.5zM578 928q-131 0 -210.5 -93t-79.5 -244v-132q0 -155 77 -245.5t213 -90.5q135 0 211 90t76 246v132q0 152 -78 244.5
t-209 92.5zM230 1195l278 214h153l261 -214h-173l-166 133h-5l-169 -133h-179zM776 1411l200 235h180l-308 -286z" />
    <glyph glyph-name="Ocircumflexgrave" unicode="&#x1ed2;" horiz-adv-x="1360" 
d="M299 778v-205q0 -225 105 -340.5t275 -115.5q171 0 276.5 115.5t105.5 340.5v205q0 227 -106.5 349t-275.5 122q-168 0 -274 -122t-106 -349zM140 573v205q0 288 147 452t394 164t393 -164t146 -452v-205q0 -286 -147 -444t-396 -158q-248 0 -392.5 158t-144.5 444z
M1107 1717h-124l-266 245h180zM332 1511l278 214h153l261 -214h-173l-166 133h-5l-169 -133h-179z" />
    <glyph glyph-name="ocircumflexgrave" unicode="&#x1ed3;" horiz-adv-x="1155" 
d="M578 1066q195 0 320 -122.5t125 -335.5v-166q0 -214 -125 -336.5t-320 -122.5q-199 0 -322.5 121.5t-123.5 337.5v166q0 207 126 332.5t320 125.5zM578 928q-131 0 -210.5 -93t-79.5 -244v-132q0 -155 77 -245.5t213 -90.5q135 0 211 90t76 246v132q0 152 -78 244.5
t-209 92.5zM1005 1401h-124l-266 245h180zM230 1195l278 214h153l261 -214h-173l-166 133h-5l-169 -133h-179z" />
    <glyph glyph-name="Ocircumflexhookabove" unicode="&#x1ed4;" horiz-adv-x="1360" 
d="M299 778v-205q0 -225 105 -340.5t275 -115.5q171 0 276.5 115.5t105.5 340.5v205q0 227 -106.5 349t-275.5 122q-168 0 -274 -122t-106 -349zM140 573v205q0 288 147 452t394 164t393 -164t146 -452v-205q0 -286 -147 -444t-396 -158q-248 0 -392.5 158t-144.5 444z
M332 1511l278 214h153l261 -214h-173l-166 133h-5l-169 -133h-179zM851 1863v86q36 8 86 8q79 0 124.5 -36t45.5 -99q0 -91 -104 -147l-58 62q51 33 51 71q0 29 -24.5 44.5t-59.5 15.5q-37 0 -61 -5z" />
    <glyph glyph-name="ocircumflexhookabove" unicode="&#x1ed5;" horiz-adv-x="1155" 
d="M578 1066q195 0 320 -122.5t125 -335.5v-166q0 -214 -125 -336.5t-320 -122.5q-199 0 -322.5 121.5t-123.5 337.5v166q0 207 126 332.5t320 125.5zM578 928q-131 0 -210.5 -93t-79.5 -244v-132q0 -155 77 -245.5t213 -90.5q135 0 211 90t76 246v132q0 152 -78 244.5
t-209 92.5zM230 1195l278 214h153l261 -214h-173l-166 133h-5l-169 -133h-179zM749 1547v86q36 8 86 8q79 0 124.5 -36t45.5 -99q0 -91 -104 -147l-58 62q51 33 51 71q0 29 -24.5 44.5t-59.5 15.5q-37 0 -61 -5z" />
    <glyph glyph-name="Ocircumflextilde" unicode="&#x1ed6;" horiz-adv-x="1360" 
d="M299 778v-205q0 -225 105 -340.5t275 -115.5q171 0 276.5 115.5t105.5 340.5v205q0 227 -106.5 349t-275.5 122q-168 0 -274 -122t-106 -349zM140 573v205q0 288 147 452t394 164t393 -164t146 -452v-205q0 -286 -147 -444t-396 -158q-248 0 -392.5 158t-144.5 444z
M671 1844q-52 50 -90 50q-66 0 -71 -101h-116q0 79 47.5 137.5t137.5 58.5q45 0 80.5 -17t75.5 -53q2 -2 13 -12t14.5 -13t13 -9.5t15 -9t14.5 -5t18 -2.5q35 0 53.5 33.5t22.5 73.5h115q0 -80 -50 -138t-132 -58q-57 0 -91.5 16t-69.5 49zM332 1511l278 214h153l261 -214
h-173l-166 133h-5l-169 -133h-179z" />
    <glyph glyph-name="ocircumflextilde" unicode="&#x1ed7;" horiz-adv-x="1155" 
d="M578 1066q195 0 320 -122.5t125 -335.5v-166q0 -214 -125 -336.5t-320 -122.5q-199 0 -322.5 121.5t-123.5 337.5v166q0 207 126 332.5t320 125.5zM578 928q-131 0 -210.5 -93t-79.5 -244v-132q0 -155 77 -245.5t213 -90.5q135 0 211 90t76 246v132q0 152 -78 244.5
t-209 92.5zM569 1528q-52 50 -90 50q-66 0 -71 -101h-116q0 79 47.5 137.5t137.5 58.5q45 0 80.5 -17t75.5 -53q2 -2 13 -12t14.5 -13t13 -9.5t15 -9t14.5 -5t18 -2.5q35 0 53.5 33.5t22.5 73.5h115q0 -80 -50 -138t-132 -58q-57 0 -91.5 16t-69.5 49zM230 1195l278 214h153
l261 -214h-173l-166 133h-5l-169 -133h-179z" />
    <glyph glyph-name="Ocircumflexdotbelow" unicode="&#x1ed8;" horiz-adv-x="1360" 
d="M299 778v-205q0 -225 105 -340.5t275 -115.5q171 0 276.5 115.5t105.5 340.5v205q0 227 -106.5 349t-275.5 122q-168 0 -274 -122t-106 -349zM140 573v205q0 288 147 452t394 164t393 -164t146 -452v-205q0 -286 -147 -444t-396 -158q-248 0 -392.5 158t-144.5 444z
M361 1503l282 244h99l271 -244h-163l-158 144h-5l-167 -144h-159zM576 -250q0 45 29 73t75 28t75 -28t29 -73t-29 -72t-75 -27t-75 27t-29 72z" />
    <glyph glyph-name="ocircumflexdotbelow" unicode="&#x1ed9;" horiz-adv-x="1155" 
d="M578 1066q195 0 320 -122.5t125 -335.5v-166q0 -214 -125 -336.5t-320 -122.5q-199 0 -322.5 121.5t-123.5 337.5v166q0 207 126 332.5t320 125.5zM578 928q-131 0 -210.5 -93t-79.5 -244v-132q0 -155 77 -245.5t213 -90.5q135 0 211 90t76 246v132q0 152 -78 244.5
t-209 92.5zM277 1220l249 382h101l239 -382h-137l-152 263h-3l-159 -263h-138zM474 -250q0 45 29 73t75 28t75 -28t29 -73t-29 -72t-75 -27t-75 27t-29 72z" />
    <glyph glyph-name="Ohornacute" unicode="&#x1eda;" horiz-adv-x="1360" 
d="M1220 573q0 -286 -147 -444t-396 -158q-248 0 -392.5 158t-144.5 444v205q0 288 147 452t394 164q86 0 160.5 -24t133.5 -47.5t107 -23.5q77 0 107 41.5t30 119.5v86h143v-84q0 -137 -64 -206.5t-187 -69.5l-4 -7q45 -60 79 -172t34 -229v-205zM298 778v-205
q0 -225 105.5 -340.5t275.5 -115.5q171 0 276.5 115.5t105.5 340.5v205q0 227 -106.5 349t-275.5 122q-168 0 -274.5 -122t-106.5 -349zM555 1514l253 201h190l-264 -201h-179z" />
    <glyph glyph-name="ohornacute" unicode="&#x1edb;" horiz-adv-x="1151" 
d="M578 -17q-199 0 -322.5 121.5t-123.5 337.5v166q0 207 126 332.5t320 125.5q58 0 140 -23.5t141 -23.5q75 0 106 41t31 120v156h143v-143q0 -133 -50 -204.5t-166 -72.5v-8q40 -49 70 -131.5t30 -168.5v-166q0 -214 -125 -336.5t-320 -122.5zM578 928q-131 0 -210.5 -93
t-79.5 -244v-132q0 -155 77 -245.5t213 -90.5q135 0 211 90t76 246v132q0 152 -78 244.5t-209 92.5zM549 1223l239 354h161l-278 -354h-122z" />
    <glyph glyph-name="Ohorngrave" unicode="&#x1edc;" horiz-adv-x="1360" 
d="M1220 573q0 -286 -147 -444t-396 -158q-248 0 -392.5 158t-144.5 444v205q0 288 147 452t394 164q86 0 160.5 -24t133.5 -47.5t107 -23.5q77 0 107 41.5t30 119.5v86h143v-84q0 -137 -64 -206.5t-187 -69.5l-4 -7q45 -60 79 -172t34 -229v-205zM298 778v-205
q0 -225 105.5 -340.5t275.5 -115.5q171 0 276.5 115.5t105.5 340.5v205q0 227 -106.5 349t-275.5 122q-168 0 -274.5 -122t-106.5 -349zM803 1514h-173l-270 201h190z" />
    <glyph glyph-name="ohorngrave" unicode="&#x1edd;" horiz-adv-x="1151" 
d="M578 -17q-199 0 -322.5 121.5t-123.5 337.5v166q0 207 126 332.5t320 125.5q58 0 140 -23.5t141 -23.5q75 0 106 41t31 120v156h143v-143q0 -133 -50 -204.5t-166 -72.5v-8q40 -49 70 -131.5t30 -168.5v-166q0 -214 -125 -336.5t-320 -122.5zM578 928q-131 0 -210.5 -93
t-79.5 -244v-132q0 -155 77 -245.5t213 -90.5q135 0 211 90t76 246v132q0 152 -78 244.5t-209 92.5zM664 1223h-122l-278 354h161z" />
    <glyph glyph-name="Ohornhookabove" unicode="&#x1ede;" horiz-adv-x="1360" 
d="M1220 573q0 -286 -147 -444t-396 -158q-248 0 -392.5 158t-144.5 444v205q0 288 147 452t394 164q86 0 160.5 -24t133.5 -47.5t107 -23.5q77 0 107 41.5t30 119.5v86h143v-84q0 -137 -64 -206.5t-187 -69.5l-4 -7q45 -60 79 -172t34 -229v-205zM298 778v-205
q0 -225 105.5 -340.5t275.5 -115.5q171 0 276.5 115.5t105.5 340.5v205q0 227 -106.5 349t-275.5 122q-168 0 -274.5 -122t-106.5 -349zM558 1678v83q45 14 93 14q80 0 133 -36t53 -100q0 -101 -138 -147l-57 74q33 7 60.5 25t27.5 42q0 54 -84 54q-43 0 -88 -9z" />
    <glyph glyph-name="ohornhookabove" unicode="&#x1edf;" horiz-adv-x="1151" 
d="M578 -17q-199 0 -322.5 121.5t-123.5 337.5v166q0 207 126 332.5t320 125.5q58 0 140 -23.5t141 -23.5q75 0 106 41t31 120v156h143v-143q0 -133 -50 -204.5t-166 -72.5v-8q40 -49 70 -131.5t30 -168.5v-166q0 -214 -125 -336.5t-320 -122.5zM578 928q-131 0 -210.5 -93
t-79.5 -244v-132q0 -155 77 -245.5t213 -90.5q135 0 211 90t76 246v132q0 152 -78 244.5t-209 92.5zM439 1444v98q45 17 106 17q96 0 153 -47t57 -131q0 -68 -40 -112t-114 -85l-61 82q54 30 76.5 56t22.5 56q0 36 -29.5 58.5t-73.5 22.5q-52 0 -97 -15z" />
    <glyph glyph-name="Ohorntilde" unicode="&#x1ee0;" horiz-adv-x="1360" 
d="M1220 573q0 -286 -147 -444t-396 -158q-248 0 -392.5 158t-144.5 444v205q0 288 147 452t394 164q86 0 160.5 -24t133.5 -47.5t107 -23.5q77 0 107 41.5t30 119.5v86h143v-84q0 -137 -64 -206.5t-187 -69.5l-4 -7q45 -60 79 -172t34 -229v-205zM298 778v-205
q0 -225 105.5 -340.5t275.5 -115.5q171 0 276.5 115.5t105.5 340.5v205q0 227 -106.5 349t-275.5 122q-168 0 -274.5 -122t-106.5 -349zM648 1530l-8 8l-8.5 8.5t-8.5 8t-9 8t-9 6.5t-10.5 6t-10 4.5t-11 3.5t-11.5 1q-21 0 -35 -9.5t-20.5 -27.5t-9.5 -32.5t-4 -35.5h-112
q0 87 45 148t134 61q76 0 153 -74l15.5 -15.5l16 -16t14.5 -12t18 -9t20 -2.5q23 0 40 20t24.5 43.5t9.5 48.5h111q0 -80 -48.5 -145t-128.5 -65q-54 0 -88.5 17.5t-68.5 51.5z" />
    <glyph glyph-name="ohorntilde" unicode="&#x1ee1;" horiz-adv-x="1151" 
d="M578 -17q-199 0 -322.5 121.5t-123.5 337.5v166q0 207 126 332.5t320 125.5q58 0 140 -23.5t141 -23.5q75 0 106 41t31 120v156h143v-143q0 -133 -50 -204.5t-166 -72.5v-8q40 -49 70 -131.5t30 -168.5v-166q0 -214 -125 -336.5t-320 -122.5zM578 928q-131 0 -210.5 -93
t-79.5 -244v-132q0 -155 77 -245.5t213 -90.5q135 0 211 90t76 246v132q0 152 -78 244.5t-209 92.5zM549 1234q-13 21 -21.5 32.5t-26.5 23t-39 11.5q-63 0 -70 -132h-113q0 105 49 176t130 71q51 0 86.5 -18.5t66.5 -65.5q4 -6 13 -21t14 -21.5t14 -16t20 -13.5t24 -4
q32 0 51 44.5t23 97.5h112q0 -95 -52 -171.5t-123 -76.5q-58 0 -94.5 20t-63.5 64z" />
    <glyph glyph-name="Ohorndotbelow" unicode="&#x1ee2;" horiz-adv-x="1360" 
d="M1220 573q0 -286 -147 -444t-396 -158q-248 0 -392.5 158t-144.5 444v205q0 288 147 452t394 164q86 0 160.5 -24t133.5 -47.5t107 -23.5q77 0 107 41.5t30 119.5v86h143v-84q0 -137 -64 -206.5t-187 -69.5l-4 -7q45 -60 79 -172t34 -229v-205zM298 778v-205
q0 -225 105.5 -340.5t275.5 -115.5q171 0 276.5 115.5t105.5 340.5v205q0 227 -106.5 349t-275.5 122q-168 0 -274.5 -122t-106.5 -349zM576 -250q0 45 29 73t75 28t75 -28t29 -73t-29 -72t-75 -27t-75 27t-29 72z" />
    <glyph glyph-name="ohorndotbelow" unicode="&#x1ee3;" horiz-adv-x="1151" 
d="M578 -17q-199 0 -322.5 121.5t-123.5 337.5v166q0 207 126 332.5t320 125.5q58 0 140 -23.5t141 -23.5q75 0 106 41t31 120v156h143v-143q0 -133 -50 -204.5t-166 -72.5v-8q40 -49 70 -131.5t30 -168.5v-166q0 -214 -125 -336.5t-320 -122.5zM578 928q-131 0 -210.5 -93
t-79.5 -244v-132q0 -155 77 -245.5t213 -90.5q135 0 211 90t76 246v132q0 152 -78 244.5t-209 92.5zM474 -250q0 45 29 73t75 28t75 -28t29 -73t-29 -72t-75 -27t-75 27t-29 72z" />
    <glyph glyph-name="Udotbelow" unicode="&#x1ee4;" horiz-adv-x="1380" 
d="M337 1365v-891q0 -163 95.5 -260.5t257.5 -97.5t257.5 97.5t95.5 260.5v891h159v-891q0 -226 -141.5 -364.5t-370.5 -138.5q-228 0 -370 140.5t-142 366.5v887h159zM586 -250q0 45 29 73t75 28t75 -28t29 -73t-29 -72t-75 -27t-75 27t-29 72z" />
    <glyph glyph-name="udotbelow" unicode="&#x1ee5;" horiz-adv-x="1200" 
d="M1016 1049v-1049h-158v174h-9q-26 -76 -106 -133.5t-206 -57.5q-168 0 -264.5 80t-96.5 253v733h158v-693q0 -126 65 -181.5t174 -55.5q120 0 202.5 76.5t82.5 180.5v673h158zM496 -250q0 45 29 73t75 28t75 -28t29 -73t-29 -72t-75 -27t-75 27t-29 72z" />
    <glyph glyph-name="Uhookabove" unicode="&#x1ee6;" horiz-adv-x="1380" 
d="M337 1365v-891q0 -163 95.5 -260.5t257.5 -97.5t257.5 97.5t95.5 260.5v891h159v-891q0 -226 -141.5 -364.5t-370.5 -138.5q-228 0 -370 140.5t-142 366.5v887h159zM568 1678v83q45 14 93 14q80 0 133 -36t53 -100q0 -101 -138 -147l-57 74q33 7 60.5 25t27.5 42
q0 54 -84 54q-43 0 -88 -9z" />
    <glyph glyph-name="uhookabove" unicode="&#x1ee7;" horiz-adv-x="1200" 
d="M1016 1049v-1049h-158v174h-9q-26 -76 -106 -133.5t-206 -57.5q-168 0 -264.5 80t-96.5 253v733h158v-693q0 -126 65 -181.5t174 -55.5q120 0 202.5 76.5t82.5 180.5v673h158zM461 1444v98q45 17 106 17q96 0 153 -47t57 -131q0 -68 -40 -112t-114 -85l-61 82
q54 30 76.5 56t22.5 56q0 36 -29.5 58.5t-73.5 22.5q-52 0 -97 -15z" />
    <glyph glyph-name="Uhornacute" unicode="&#x1ee8;" horiz-adv-x="1432" 
d="M690 -29q-228 0 -370 140.5t-142 366.5v887h159v-891q0 -163 95.5 -260.5t257.5 -97.5t258 97.5t96 260.5v891h160q77 0 107 41.5t30 119.5v96h141v-94q0 -126 -60.5 -201.5t-184.5 -75.5h-35v-777q0 -226 -141.5 -364.5t-370.5 -138.5zM565 1514l253 201h190l-264 -201
h-179z" />
    <glyph glyph-name="uhornacute" unicode="&#x1ee9;" horiz-adv-x="1269" 
d="M849 174q-26 -76 -106 -133.5t-206 -57.5q-168 0 -264.5 80t-96.5 253v733h158v-693q0 -126 65 -181.5t174 -55.5q120 0 202.5 76.5t82.5 180.5v673h144q77 0 107 41.5t30 119.5v126h143v-124q0 -125 -60.5 -200t-186.5 -75h-19v-937h-158v174h-9zM571 1223l239 354h161
l-278 -354h-122z" />
    <glyph glyph-name="Uhorngrave" unicode="&#x1eea;" horiz-adv-x="1432" 
d="M690 -29q-228 0 -370 140.5t-142 366.5v887h159v-891q0 -163 95.5 -260.5t257.5 -97.5t258 97.5t96 260.5v891h160q77 0 107 41.5t30 119.5v96h141v-94q0 -126 -60.5 -201.5t-184.5 -75.5h-35v-777q0 -226 -141.5 -364.5t-370.5 -138.5zM813 1514h-173l-270 201h190z" />
    <glyph glyph-name="uhorngrave" unicode="&#x1eeb;" horiz-adv-x="1269" 
d="M849 174q-26 -76 -106 -133.5t-206 -57.5q-168 0 -264.5 80t-96.5 253v733h158v-693q0 -126 65 -181.5t174 -55.5q120 0 202.5 76.5t82.5 180.5v673h144q77 0 107 41.5t30 119.5v126h143v-124q0 -125 -60.5 -200t-186.5 -75h-19v-937h-158v174h-9zM686 1223h-122
l-278 354h161z" />
    <glyph glyph-name="Uhornhookabove" unicode="&#x1eec;" horiz-adv-x="1432" 
d="M690 -29q-228 0 -370 140.5t-142 366.5v887h159v-891q0 -163 95.5 -260.5t257.5 -97.5t258 97.5t96 260.5v891h160q77 0 107 41.5t30 119.5v96h141v-94q0 -126 -60.5 -201.5t-184.5 -75.5h-35v-777q0 -226 -141.5 -364.5t-370.5 -138.5zM568 1678v83q45 14 93 14
q80 0 133 -36t53 -100q0 -101 -138 -147l-57 74q33 7 60.5 25t27.5 42q0 54 -84 54q-43 0 -88 -9z" />
    <glyph glyph-name="uhornhookabove" unicode="&#x1eed;" horiz-adv-x="1269" 
d="M849 174q-26 -76 -106 -133.5t-206 -57.5q-168 0 -264.5 80t-96.5 253v733h158v-693q0 -126 65 -181.5t174 -55.5q120 0 202.5 76.5t82.5 180.5v673h144q77 0 107 41.5t30 119.5v126h143v-124q0 -125 -60.5 -200t-186.5 -75h-19v-937h-158v174h-9zM461 1444v98
q45 17 106 17q96 0 153 -47t57 -131q0 -68 -40 -112t-114 -85l-61 82q54 30 76.5 56t22.5 56q0 36 -29.5 58.5t-73.5 22.5q-52 0 -97 -15z" />
    <glyph glyph-name="Uhorntilde" unicode="&#x1eee;" horiz-adv-x="1432" 
d="M690 -29q-228 0 -370 140.5t-142 366.5v887h159v-891q0 -163 95.5 -260.5t257.5 -97.5t258 97.5t96 260.5v891h160q77 0 107 41.5t30 119.5v96h141v-94q0 -126 -60.5 -201.5t-184.5 -75.5h-35v-777q0 -226 -141.5 -364.5t-370.5 -138.5zM658 1530l-8 8l-8.5 8.5t-8.5 8
t-9 8t-9 6.5t-10.5 6t-10 4.5t-11 3.5t-11.5 1q-21 0 -35 -9.5t-20.5 -27.5t-9.5 -32.5t-4 -35.5h-112q0 87 45 148t134 61q76 0 153 -74l15.5 -15.5l16 -16t14.5 -12t18 -9t20 -2.5q23 0 40 20t24.5 43.5t9.5 48.5h111q0 -80 -48.5 -145t-128.5 -65q-54 0 -88.5 17.5
t-68.5 51.5z" />
    <glyph glyph-name="uhorntilde" unicode="&#x1eef;" horiz-adv-x="1269" 
d="M849 174q-26 -76 -106 -133.5t-206 -57.5q-168 0 -264.5 80t-96.5 253v733h158v-693q0 -126 65 -181.5t174 -55.5q120 0 202.5 76.5t82.5 180.5v673h144q77 0 107 41.5t30 119.5v126h143v-124q0 -125 -60.5 -200t-186.5 -75h-19v-937h-158v174h-9zM571 1234
q-13 21 -21.5 32.5t-26.5 23t-39 11.5q-63 0 -70 -132h-113q0 105 49 176t130 71q51 0 86.5 -18.5t66.5 -65.5q4 -6 13 -21t14 -21.5t14 -16t20 -13.5t24 -4q32 0 51 44.5t23 97.5h112q0 -95 -52 -171.5t-123 -76.5q-58 0 -94.5 20t-63.5 64z" />
    <glyph glyph-name="Uhorndotbelow" unicode="&#x1ef0;" horiz-adv-x="1432" 
d="M690 -29q-228 0 -370 140.5t-142 366.5v887h159v-891q0 -163 95.5 -260.5t257.5 -97.5t258 97.5t96 260.5v891h160q77 0 107 41.5t30 119.5v96h141v-94q0 -126 -60.5 -201.5t-184.5 -75.5h-35v-777q0 -226 -141.5 -364.5t-370.5 -138.5zM586 -250q0 45 29 73t75 28
t75 -28t29 -73t-29 -72t-75 -27t-75 27t-29 72z" />
    <glyph glyph-name="uhorndotbelow" unicode="&#x1ef1;" horiz-adv-x="1269" 
d="M849 174q-26 -76 -106 -133.5t-206 -57.5q-168 0 -264.5 80t-96.5 253v733h158v-693q0 -126 65 -181.5t174 -55.5q120 0 202.5 76.5t82.5 180.5v673h144q77 0 107 41.5t30 119.5v126h143v-124q0 -125 -60.5 -200t-186.5 -75h-19v-937h-158v174h-9zM496 -250q0 45 29 73
t75 28t75 -28t29 -73t-29 -72t-75 -27t-75 27t-29 72z" />
    <glyph glyph-name="u20AB" unicode="&#x20ab;" horiz-adv-x="1128" 
d="M910 -295h-700v126h700v-126zM535 927q-128 0 -201.5 -88t-73.5 -245v-137q0 -159 75 -247t206 -88t208.5 85.5t77.5 230.5v196q0 127 -82 210t-210 83zM827 167q-20 -72 -105 -127.5t-213 -55.5q-183 0 -294.5 117.5t-111.5 314.5v218q0 194 112 313.5t299 119.5
q121 0 198.5 -49.5t106.5 -121.5h8v279h-268v126h268v186h157v-186h133v-126h-133v-1175h-149v167h-8z" />
    </font>
</defs>
</svg>
